HIERARCHY
ROOT Hips
{
	OFFSET 0.000000 0.000000 0.000000
	CHANNELS 6 Xposition Yposition Zposition Zrotation Yrotation Xrotation 
	JOINT LeftUpLeg_virtual
	{
		OFFSET 0.000000 0.000000 0.000000
		CHANNELS 3 Zrotation Yrotation Xrotation
		JOINT LeftUpLeg
		{
			OFFSET 8.479694 -4.795517 -0.379053
			CHANNELS 3 Zrotation Yrotation Xrotation
			JOINT LeftLeg
			{
				OFFSET 0.485052 -32.551468 0.112863
				CHANNELS 3 Zrotation Yrotation Xrotation
				JOINT LeftFoot
				{
					OFFSET 0.438033 -32.635670 -3.012641
					CHANNELS 3 Zrotation Yrotation Xrotation
					JOINT LeftToeBase
					{
						OFFSET 0.970169 -13.225353 11.864223
						CHANNELS 3 Zrotation Yrotation Xrotation
						End Site
						{
							OFFSET 0.000000 0.000000 0.000000
						}
					}
				}
			}
		}
	}
	JOINT RightUpLeg_virtual
	{
		OFFSET 0.000000 0.000000 0.000000
		CHANNELS 3 Zrotation Yrotation Xrotation
		JOINT RightUpLeg
		{
			OFFSET -8.479694 -4.795517 -0.379053
			CHANNELS 3 Zrotation Yrotation Xrotation
			JOINT RightLeg
			{
				OFFSET -0.484100 -32.551483 0.112903
				CHANNELS 3 Zrotation Yrotation Xrotation
				JOINT RightFoot
				{
					OFFSET -0.438985 -32.635651 -3.012681
					CHANNELS 3 Zrotation Yrotation Xrotation
					JOINT RightToeBase
					{
						OFFSET -0.970169 -13.225354 11.864223
						CHANNELS 3 Zrotation Yrotation Xrotation
						End Site
						{
							OFFSET 0.000000 0.000000 0.000000
						}
					}
				}
			}
		}
	}
	JOINT Spine_virtual
	{
		OFFSET 0.000000 0.000000 0.000000
		CHANNELS 3 Zrotation Yrotation Xrotation
		JOINT Spine
		{
			OFFSET 0.000000 7.722015 1.166203
			CHANNELS 3 Zrotation Yrotation Xrotation
			JOINT Spine1
			{
				OFFSET 0.000000 12.024086 0.248766
				CHANNELS 3 Zrotation Yrotation Xrotation
				JOINT Spine2
				{
					OFFSET -0.000000 11.503036 -0.491240
					CHANNELS 3 Zrotation Yrotation Xrotation
					JOINT Neck_virtual
					{
						OFFSET 0.000000 0.000000 0.000000
						CHANNELS 3 Zrotation Yrotation Xrotation
						JOINT Neck
						{
							OFFSET 0.000000 18.430687 -3.123054
							CHANNELS 3 Zrotation Yrotation Xrotation
							JOINT Head
							{
								OFFSET -0.000000 9.051071 1.034021
								CHANNELS 3 Zrotation Yrotation Xrotation
								End Site
								{
									OFFSET 0.000000 0.000000 0.000000
								}
							}
						}
					}
					JOINT LeftShoulder_virtual
					{
						OFFSET 0.000000 0.000000 0.000000
						CHANNELS 3 Zrotation Yrotation Xrotation
						JOINT LeftShoulder
						{
							OFFSET 6.197824 13.665230 -4.064723
							CHANNELS 3 Zrotation Yrotation Xrotation
							JOINT LeftArm
							{
								OFFSET 7.778132 -0.187073 -1.709282
								CHANNELS 3 Zrotation Yrotation Xrotation
								JOINT LeftForeArm
								{
									OFFSET 21.954697 0.000000 -2.041093
									CHANNELS 3 Zrotation Yrotation Xrotation
									JOINT LeftHand
									{
										OFFSET 22.992908 0.000000 -0.870901
										CHANNELS 3 Zrotation Yrotation Xrotation
										End Site
										{
											OFFSET 0.000000 0.000000 0.000000
										}
									}
								}
							}
						}
					}
					JOINT RightShoulder_virtual
					{
						OFFSET 0.000000 0.000000 0.000000
						CHANNELS 3 Zrotation Yrotation Xrotation
						JOINT RightShoulder
						{
							OFFSET -6.197824 13.665230 -4.064723
							CHANNELS 3 Zrotation Yrotation Xrotation
							JOINT RightArm
							{
								OFFSET -7.778132 -0.187073 -1.709282
								CHANNELS 3 Zrotation Yrotation Xrotation
								JOINT RightForeArm
								{
									OFFSET -21.954697 0.000000 -2.041093
									CHANNELS 3 Zrotation Yrotation Xrotation
									JOINT RightHand
									{
										OFFSET -22.992908 0.000000 -0.870901
										CHANNELS 3 Zrotation Yrotation Xrotation
										End Site
										{
											OFFSET 0.000000 0.000000 0.000000
										}
									}
								}
							}
						}
					}
				}
			}
		}
	}
}
MOTION
Frames: 9
Frame Time: 0.033333
-7.874324 81.448380 135.679550 -179.789075 45.156665 179.924176 -3.645315 -0.686121 8.863844 0.942543 1.088276 -25.859526 8.929416 9.775608 27.861189 -2.782399 -9.542550 -5.531507 0.000000 0.000000 0.000000 0.730538 -1.415229 7.193924 0.435071 10.992962 -23.118831 -2.011979 7.927398 24.545572 5.596471 7.749805 -8.736073 0.000000 0.000000 0.000000 2.487242 1.597520 -2.359954 1.244471 -1.067096 -4.634851 -0.986165 -2.035288 8.488442 -0.006436 -0.109656 -0.046713 -1.448856 -0.525236 10.000551 -3.115564 0.180265 -7.101667 0.000000 0.000000 0.000000 0.232246 0.091665 7.283347 -7.787424 -1.185977 1.140609 -67.406297 -1.903081 14.476637 4.221982 -30.659722 14.338309 0.000000 0.000000 0.000000 -4.285666 1.726214 6.427304 27.999116 -1.072537 1.984584 51.297798 -2.582898 20.024052 -6.391003 30.076847 -4.098630 0.000000 0.000000 0.000000 
-7.737519 81.433899 135.682846 -179.577612 44.432440 179.981495 -3.758893 -0.529914 8.932573 0.788721 1.546909 -26.003348 8.829372 10.178344 27.905392 -2.790855 -9.533791 -5.545975 0.000000 0.000000 0.000000 0.562529 -0.674595 7.222280 0.260684 11.098463 -23.354290 -2.176070 8.307699 24.468186 5.489578 7.665757 -8.731157 0.000000 0.000000 0.000000 2.522846 1.516403 -2.135008 1.191129 -1.258356 -4.537486 -0.983861 -2.174354 8.505691 -0.100922 -0.210868 -0.066736 -1.355524 -0.391228 9.935617 -3.101632 0.091023 -7.225105 0.000000 0.000000 0.000000 0.330904 0.190469 7.312684 -7.697918 -1.280286 1.118618 -67.337291 -1.985046 14.596843 4.176016 -30.554175 14.364023 0.000000 0.000000 0.000000 -4.151462 1.707456 6.486313 27.985573 -1.031438 2.000428 51.306779 -2.542851 20.193017 -6.332665 30.100357 -4.010025 0.000000 0.000000 0.000000 
-7.532237 81.431511 135.704620 -179.600931 44.162207 179.991577 -3.772596 -0.638005 9.119419 0.914934 1.380149 -26.105272 8.881132 10.074196 27.895983 -2.906213 -9.597172 -5.604834 0.000000 0.000000 0.000000 0.571483 -0.838559 7.400413 0.373854 11.025763 -23.584963 -2.145087 8.292655 24.672631 5.393917 7.676907 -8.746065 0.000000 0.000000 0.000000 2.454102 1.475449 -1.948475 1.045701 -1.195219 -4.410420 -0.962721 -2.106490 8.516703 -0.011972 -0.227909 -0.052807 -1.467347 -0.500462 9.967392 -3.161126 0.235914 -7.357249 0.000000 0.000000 0.000000 0.237745 0.086781 7.336961 -7.612500 -1.426595 1.209623 -67.280533 -1.949459 14.666400 4.313107 -30.470215 14.294597 0.000000 0.000000 0.000000 -4.251484 1.633234 6.502480 28.031131 -1.033641 1.989338 51.406483 -2.385766 20.550917 -6.335975 29.972144 -3.930620 0.000000 0.000000 0.000000 
-7.303867 81.424774 135.774734 -179.659465 44.025135 179.951825 -3.796521 -0.689429 9.333465 1.057180 1.157363 -26.190113 8.993169 10.025604 27.822731 -3.002887 -9.601084 -5.711707 0.000000 0.000000 0.000000 0.597074 -0.964001 7.571557 0.470360 11.003618 -23.846368 -2.096127 8.300089 24.952621 5.297195 7.740034 -8.722666 0.000000 0.000000 0.000000 2.348793 1.396916 -1.736311 0.851747 -1.227032 -4.162794 -0.972045 -2.086928 8.536875 -0.056291 -0.203934 -0.063633 -1.405069 -0.265921 9.927934 -3.162708 0.099000 -7.669777 0.000000 0.000000 0.000000 0.298981 0.224016 7.359443 -7.441058 -1.494387 1.150727 -67.276004 -1.813623 14.420986 4.228175 -30.405110 14.487330 0.000000 0.000000 0.000000 -4.168073 1.702224 6.430246 27.900821 -1.011160 1.863175 51.576172 -2.286876 20.946387 -6.297118 29.771200 -3.736710 0.000000 0.000000 0.000000 
-7.070860 81.416466 135.896439 -179.730527 44.040397 179.929067 -3.789486 -0.802586 9.491645 1.257564 0.811377 -26.231386 9.137186 10.037199 27.741409 -3.098139 -9.567399 -5.807718 0.000000 0.000000 0.000000 0.649436 -1.084898 7.699561 0.556144 11.007110 -24.120731 -2.036018 8.254442 25.211085 5.147059 7.797512 -8.744611 0.000000 0.000000 0.000000 2.232345 1.347719 -1.620157 0.633134 -1.185313 -3.837284 -0.973849 -2.022512 8.577256 -0.027921 -0.181156 -0.068418 -1.442752 -0.409726 10.084423 -3.192274 0.073185 -7.852901 0.000000 0.000000 0.000000 0.278996 0.348261 7.336583 -7.331431 -1.680602 1.260946 -67.188619 -1.694709 14.115790 4.267842 -30.395237 14.283134 0.000000 0.000000 0.000000 -4.207823 1.895614 6.562970 27.960884 -0.981486 1.731300 51.726378 -2.080717 21.252158 -6.467253 29.577038 -3.805340 0.000000 0.000000 0.000000 
-6.804094 81.413559 136.081268 -179.810577 43.998764 179.872130 -3.808000 -0.977247 9.624950 1.464053 0.471599 -26.243759 9.322601 10.000684 27.637114 -3.244818 -9.566896 -5.833265 0.000000 0.000000 0.000000 0.699311 -1.630953 7.808842 0.617422 11.073448 -24.346587 -1.958490 8.234593 25.411451 4.970387 7.872576 -8.723208 0.000000 0.000000 0.000000 2.140361 1.374792 -1.518696 0.397622 -1.006913 -3.419571 -0.980755 -1.840962 8.623606 -0.003563 -0.127282 -0.080995 -1.478711 -0.307932 10.176266 -3.147285 -0.004836 -8.194035 0.000000 0.000000 0.000000 0.244313 0.268708 7.442829 -7.122031 -2.117529 1.336173 -67.100537 -1.617804 13.642184 4.304483 -30.399314 14.164299 0.000000 0.000000 0.000000 -4.228448 1.826403 6.612579 27.997963 -1.121318 1.628423 51.904469 -1.934636 21.627606 -6.459990 29.292349 -3.648766 0.000000 0.000000 0.000000 
-6.489604 81.415375 136.324921 -179.897866 44.010737 179.776316 -3.823097 -1.122419 9.765349 1.690847 0.211702 -26.227037 9.507559 9.983723 27.524841 -3.451360 -9.601840 -5.817624 0.000000 0.000000 0.000000 0.800989 -2.125058 7.880999 0.690480 11.156783 -24.530720 -1.865133 8.244907 25.570589 4.781367 7.975512 -8.659651 0.000000 0.000000 0.000000 2.114694 1.301654 -1.359835 0.121664 -0.951274 -2.885020 -1.045899 -1.721662 8.588177 -0.035181 -0.077557 -0.033482 -1.415367 -0.028895 10.230443 -3.081561 -0.082296 -8.740335 0.000000 0.000000 0.000000 0.291055 0.458346 7.502178 -6.849955 -2.341674 1.361756 -67.082826 -1.570798 12.902586 4.275375 -30.412865 14.116156 0.000000 0.000000 0.000000 -4.181295 2.012989 6.730263 28.001918 -1.159807 1.447922 52.171191 -1.788811 21.931109 -6.533464 29.075989 -3.552938 0.000000 0.000000 0.000000 
-6.109724 81.415031 136.614441 -179.981072 43.968725 179.725008 -3.771711 -1.311658 9.892403 1.955464 0.058775 -26.228842 9.700344 9.825954 27.464686 -3.652837 -9.586853 -5.728490 0.000000 0.000000 0.000000 0.961550 -2.311268 7.930967 0.779171 11.156498 -24.718439 -1.763566 8.219754 25.724057 4.540930 8.073861 -8.609228 0.000000 0.000000 0.000000 2.144580 1.233886 -1.298696 -0.118505 -0.838742 -2.336411 -1.086295 -1.561762 8.722685 0.006021 -0.047279 -0.054115 -1.562957 -0.108523 10.305154 -2.929538 -0.286312 -9.205659 0.000000 0.000000 0.000000 0.126102 0.600578 7.627756 -6.559448 -2.834045 1.533582 -66.865749 -1.573806 12.081403 4.267304 -30.555869 13.953948 0.000000 0.000000 0.000000 -4.344707 2.110771 6.788332 28.060379 -1.265663 1.291989 52.516932 -1.588176 22.230230 -6.670255 28.814085 -3.578885 0.000000 0.000000 0.000000 
-5.685588 81.402740 136.956802 179.972507 43.889576 179.713424 -3.719001 -1.447147 9.996442 2.193925 0.012602 -26.288208 9.865244 9.612538 27.502148 -3.891970 -9.557184 -5.607217 0.000000 0.000000 0.000000 1.199026 -2.354497 7.982519 0.908464 11.016897 -24.935190 -1.668158 8.172985 25.924253 4.234631 8.167493 -8.619478 0.000000 0.000000 0.000000 2.283068 1.142731 -1.251207 -0.376699 -0.756717 -1.752863 -1.169159 -1.406972 8.869256 -0.021603 0.013444 -0.025615 -1.589230 0.081736 10.357173 -2.718204 -0.461615 -9.661354 0.000000 0.000000 0.000000 0.069667 0.698524 7.680722 -6.190099 -3.163067 1.589251 -66.576620 -1.538898 10.943213 4.063928 -30.709876 14.062049 0.000000 0.000000 0.000000 -4.398919 2.236905 6.894100 28.131729 -1.283835 1.116152 52.864469 -1.369266 22.636586 -6.783518 28.689035 -3.568826 0.000000 0.000000 0.000000 
